<?xml version="1.0" encoding="utf-8"?>
<svg version="1.1" xmlns="http://www.w3.org/2000/svg" x="0px" y="0px"
	 width="200px" height="200px" viewBox="-19 101 200 200"
     style="enable-background:new -19 101 200 200;" xml:space="preserve"
     align="center">
<style type="text/css">
	.st0{fill:#FBC410;}
	.st1{fill:none;stroke:#F0514A;stroke-width:1.4083;stroke-miterlimit:10;}
	.st2{fill:#F0514A;}
</style>
<g>
    <path class="st0" d="M88.74,219.357l-1.1-2.891c20.458-7.787,38.98-16.931,52.154-25.749
        c18.141-12.143,17.749-17.824,17.196-19.275c-0.553-1.451-4.035-5.956-25.66-2.965c-15.702,2.172-35.617,7.657-56.075,15.442
        l-1.1-2.891c20.67-7.867,40.825-13.412,56.752-15.615c11.744-1.624,26.305-2.088,28.975,4.929
        c2.671,7.017-8.513,16.351-18.366,22.946C128.153,202.233,109.411,211.491,88.74,219.357z"/>
</g>
<path class="st1" d="M133.658,210.752"/>
<path class="st2" d="M56.355,176.574l-2.431-5.399c-3.541-8.762-13.509-13-22.275-9.471l0,0
    c-14.428,6.729-11.72,18.311-7.659,31.698c4.332,13.216,8.423,25.954,25.269,52.522c21.631-4.553,33.309-9.4,50.125-17.123
    c16.53-6.673,24.516-25.484,17.837-42.011l0,0c-6.675-16.515-25.47-24.497-41.988-17.832L56.355,176.574z"/>
<path class="st0" d="M117.155,235.246c9.006-5.093,17.141-10.578,23.917-16.196l-1.974-2.382
    c-6.411,5.314-14.061,10.514-22.538,15.365c-0.893-4.654-1.956-9.42-3.162-14.169l-2.55,3.084c1.038,4.4,1.93,8.67,2.683,12.786
    c-7.591,4.175-15.778,8.061-24.288,11.5c-7.93,3.204-15.852,5.912-23.574,8.092c-8.221-11.16-16.046-24.544-22.795-39.152
    c-10.203-22.081-16.715-44.239-18.334-62.393c-1.551-17.372,1.702-29.249,8.922-32.584c11.028-5.095,30.612,10.265,49.091,37.376
    l6.152,10.065l3.832,0.401l-6.126-10.17c-19.727-30.537-41.403-46.417-54.246-40.48c-8.601,3.974-12.403,16.641-10.706,35.667
    c1.65,18.499,8.258,41.021,18.606,63.417c6.64,14.369,14.319,27.588,22.408,38.724c-12.248,3.245-23.917,5.115-34.202,5.403
    c-16.848,0.471-28.223-3.492-31.206-10.875c-2.983-7.382,2.445-18.135,14.892-29.501c4.71-4.3,10.22-8.535,16.364-12.604
    l0.208-0.131l-1.106-2.965l-0.224,0.133c-6.517,4.276-12.355,8.741-17.328,13.282C-3.783,229.407-9.35,241.107-5.804,249.883
    c1.862,4.607,6.087,8.049,12.358,10.205c5.674,1.951,13.023,2.849,21.804,2.603c10.845-0.303,23.174-2.322,36.087-5.823
    c3.893,5.153,7.866,9.817,11.855,13.875c7.001,7.124,13.65,11.975,19.632,14.414c5.46,2.227,10.365,2.446,14.47,0.55
    c6.607-3.053,9.772-13.333,9.154-29.727C119.326,249.841,118.479,242.737,117.155,235.246z M109.106,282.898
    c-7.22,3.336-18.372-1.884-30.598-14.323c-3.646-3.709-7.28-7.949-10.852-12.606c7.47-2.152,15.105-4.78,22.745-7.867
    c8.276-3.344,16.252-7.113,23.691-11.158C118.165,261.22,116.909,279.293,109.106,282.898z"/>
<path class="st2" d="M153.906,199.311l-18.779,14.782l-2.241,0.002c-5.546,0.004-10.126,4.335-10.44,9.872l4.702-3.555l6.405,9.852
    l-4.914,2.977l2.356,0.301c5.457,0.699,10.509-2.949,11.585-8.327l20.781-11.88c4.259-2.435,5.485-14.065,5.485-14.065
    S157.799,196.247,153.906,199.311z"/>
</svg>
